PathFileType	4	(X/Y/Z)	RBDS05\RBDS05runT45.trc
DataRate	CameraRate	NumFrames	NumMarkers	Units	OrigDataRate	OrigDataStartFrame	OrigNumFrames
150.000000	150.000000	4	32	mm	150.000000	3937	4500
Frame#	Time	L.ASIS			L.Heel.Bottom			L.Heel.Lateral			L.Heel.Top			L.Iliac.Crest			L.MT1			L.MT5			L.PSIS			L.Shank.Bottom.Lateral			L.Shank.Bottom.Medial			L.Shank.Top.Lateral			L.Shank.Top.Medial			L.Thigh.Bottom.Lateral			L.Thigh.Bottom.Medial			L.Thigh.Top.Lateral			L.Thigh.Top.Medial			R.ASIS			R.ASY			R.Heel.Bottom			R.Heel.Lateral			R.Heel.Top			R.Iliac.Crest			R.MT5			R.PSIS			R.Shank.Bottom.Lateral			R.Shank.Bottom.Medial			R.Shank.Top.Lateral			R.Shank.Top.Medial			R.Thigh.Bottom.Lateral			R.Thigh.Bottom.Medial			R.Thigh.Top.Lateral			R.Thigh.Top.Medial			
		X1	Y1	Z1	X2	Y2	Z2	X3	Y3	Z3	X4	Y4	Z4	X5	Y5	Z5	X6	Y6	Z6	X7	Y7	Z7	X8	Y8	Z8	X9	Y9	Z9	X10	Y10	Z10	X11	Y11	Z11	X12	Y12	Z12	X13	Y13	Z13	X14	Y14	Z14	X15	Y15	Z15	X16	Y16	Z16	X17	Y17	Z17	X18	Y18	Z18	X19	Y19	Z19	X20	Y20	Z20	X21	Y21	Z21	X22	Y22	Z22	X23	Y23	Z23	X24	Y24	Z24	X25	Y25	Z25	X26	Y26	Z26	X27	Y27	Z27	X28	Y28	Z28	X29	Y29	Z29	X30	Y30	Z30	X31	Y31	Z31	X32	Y32	Z32	

3938	26.24666666666667	2360.099908467778	901.7748994095474	856.388410994618	2231.834225331739	31.4083609320422	932.9104819436052	2265.386603622711	49.47873429275844	892.60265835308	2247.90943869209	78.41498280599743	938.9467532455286	2294.986057332196	958.3023170142002	822.0129270502659	2439.013070435855	42.51562444057719	972.3471715366391	2413.856735785243	38.28981240096895	870.7847889441766	2210.066145190553	939.043932594902	938.9880700316252	2341.295651379517	152.3600752779416	875.3723823897383	2298.494814422136	166.8248577133314	899.3717945259197	2358.773896581792	228.5023507520995	853.5831141276376	2316.72595109358	247.3650062507722	880.2706834627504	2396.061488778147	567.591573238133	813.3765380148403	2341.839903713339	536.3364256102793	850.8693621719243	2332.991874048274	659.0277865829842	805.9140512023187	2284.77683034697	631.3326733653264	845.5223131179822	2382.859367653076	892.0092973370695	1078.949881249921	-339668005395.5878	-25064880342.42212	60534293419.00104	1919.821006361805	520.0660391593974	999.0884793211999	1918.867358386083	490.7847625575206	1040.405114521921	1961.809923207676	498.0561576084385	1007.807699935937	2344.653786022328	940.8804615239528	1112.490447233375	1868.15009801549	343.0814595189578	1058.504257166904	2226.36241042165	937.354519692768	1029.371873248488	2035.73173715917	438.1172705547402	1078.360655488083	2042.514571451924	480.3375816169288	1044.085069538313	2113.121823703315	447.5578598217105	1102.509109684185	2118.977681278901	487.5715137329157	1067.449323720638	2348.472470157569	511.4704656613998	1157.960685739165	2285.631612856186	495.6041122093044	1123.163747324435	2318.475883609792	617.9205011680389	1160.568619738092	2257.093816191717	601.9706667477408	1130.248554940463	
3939	26.25333333333333	2357.665913318637	900.217692808935	855.2071384957859	2201.920753902727	31.40898529145569	932.9539422371531	2235.190608068353	49.83798657696993	892.5886209262883	2217.5273464789	78.52448557568539	938.8468370653659	2291.0401484535	956.0565920028287	822.2056082205476	2408.651603714274	43.43038538213485	972.3244430030901	2383.465410512571	39.42633367979973	870.8031429075631	2208.13319825428	938.0615113798486	939.8650306018639	2315.163400509766	151.5178671049871	875.3838331180699	2272.810340600462	168.0802543766431	898.9157716740328	2336.25459517404	226.738339788633	853.3297772634004	2294.86248788663	247.6417856776461	879.5489636693911	2386.371195551549	563.3420478607751	812.498882605698	2331.304206588787	533.6308562577069	850.0286130084951	2325.86764974185	656.5063112291518	805.2666738152152	2276.956227836656	630.2107565644931	844.9489909706354	2381.065325636703	890.636764386424	1078.373861597636	-339991499543.7648	-25088749169.57141	60591944849.74448	1935.123535550628	513.6602898696635	1005.042297776964	1936.019160316495	483.250169849903	1045.674140283689	1977.962452600919	492.9396527783657	1012.399018675978	2341.582303098361	938.8611336637324	1112.993388596629	1891.34780228079	333.0033814885504	1059.774495098637	2224.189675488956	935.8771766015651	1029.711331636001	2055.49400740954	433.1384021057237	1080.331747268295	2060.936538528258	476.3721455707561	1047.175942126803	2132.910696653155	443.7649384908297	1103.874972002275	2137.471421579344	484.7496171360816	1069.710581861895	2364.114500095559	513.4050851341091	1157.032872890068	2302.247798233376	494.4310310189426	1122.143172237872	2328.600215069369	618.1504819154186	1159.941537652803	2267.877786109875	599.02434290552	1130.04447401582	
3940	26.26	2355.641640478563	899.2078290147801	854.4068845486636	2171.773915784542	31.17383704556667	932.8814728746797	2204.748907280602	49.9705348707793	892.4073923797415	2186.74384747317	78.48165582853277	938.4832609460149	2287.479318003045	954.9187156511109	822.5420408181972	2378.034813997547	44.66143291828948	972.2670059697324	2352.820887378786	40.62220266184306	870.7511287475418	2206.677250239485	937.8936085021209	940.4464928703255	2287.953504602389	150.768642766736	875.1958701848275	2246.125371352859	169.1791452190325	898.3547070551058	2312.255142487691	224.988698213654	852.9750830506833	2271.528957479701	247.6716048545749	878.764194092353	2375.290450644658	559.2166349322517	811.7679225063471	2319.155889375314	531.3489125418229	849.1428034960146	2318.007750243351	654.3536557939707	804.7913036149673	2268.183469447417	629.743250816549	844.4167606641691	2379.293340157119	890.1880761010475	1078.085933571658	-340315199020.3704	-25112633145.15313	60649632872.78142	1949.694208330496	505.5359801147114	1010.531970741272	1952.768140537055	474.2329642848894	1050.417535588384	1993.457208946617	486.5138411097771	1016.559669452691	2338.404256656452	937.9891142971414	1113.55437580622	1915.331788777509	321.5737988951694	1061.128563377942	2222.262502787468	935.3968207115265	1029.87006466436	2075.059177456309	427.9022000899058	1081.952369221375	2078.794144270025	471.9764803716859	1049.759162451479	2152.381977899107	440.3824256670996	1104.760392933217	2155.290052370528	482.1575125375456	1071.356449157008	2379.421970722761	517.1610673405804	1155.701771546047	2318.718046636041	495.218255675919	1120.580561246965	2338.502642699476	619.9362705211608	1159.095822694602	2278.653095182121	597.747669623978	1129.438141693123	
3941	26.26666666666667	2354.128661726014	898.725303308807	854.0034947954877	2141.339166433047	30.93011222803884	932.727702914245	2174.077675552547	50.0283125289298	892.1103115170797	2155.65539559384	78.49748088651972	937.9280870491876	2284.646435505816	954.8835892802281	822.9677328363379	2347.243009562604	45.8995326998575	972.2134533773924	2321.977412473633	41.65386695579387	870.6653690196533	2205.751302932846	938.5303582315594	940.7202137906452	2259.838306099462	150.2711813882334	874.8368578504603	2218.595362592594	170.2752818532163	897.7497539199228	2286.942129534662	223.4676842391254	852.5294895537411	2246.875241091182	247.6707045693184	877.9611608151091	2362.909754900075	555.4618437624893	811.16144238648	2305.557402475116	529.7095858833031	848.2299194861336	2309.460557544634	652.7254986965115	804.4884297864045	2258.578121769335	630.0595587395449	843.9686142082309	2377.655277632135	890.7302365086572	1078.06863382957	-340639103890.5469	-25136532273.97273	60707357499.72104	1963.651906171713	495.6636051571174	1015.351454222326	1969.180845101714	463.7913534424202	1054.454413181159	2008.356875072848	478.7557844024032	1020.122225082409	2335.313679924177	938.3030177473098	1114.144360512267	1940.089109290068	309.0500014167417	1062.55711693423	2220.65717263969	935.9323786191619	1029.847373963332	2094.342681456122	422.4680884754467	1083.163295152355	2096.026377806011	467.1572111195637	1051.735500082344	2171.399092187698	437.4511004197127	1105.131376760799	2172.320060037439	479.7867613295448	1072.32702405567	2394.209387439076	522.6606053172943	1153.98298423248	2334.790561665595	497.9324026966893	1118.549254934198	2348.097073693902	623.2372567392657	1158.059135997068	2289.282603293033	598.1481505131818	1128.494511255124	
